<svg xmlns="http://www.w3.org/2000/svg" xmlns:xlink="http://www.w3.org/1999/xlink" viewBox="0 0 105 108.57"><defs><style>.a{fill:url(#a);}.b{fill:url(#b);}.c{fill-opacity:0;stroke:#00537d;}.c,.d{stroke-linecap:round;stroke-linejoin:round;opacity:0.5;isolation:isolate;}.d{fill:none;stroke:url(#c);}.e{stroke:#000;stroke-miterlimit:10;opacity:0.05;}.e,.f,.g{fill-rule:evenodd;}.f{opacity:0.15;}.g{fill:#fff;}</style><radialGradient id="a" cx="208.99" cy="-1267.43" r="62.77" gradientTransform="matrix(0.69, 0, 0, -0.21, -79.47, -163.49)" gradientUnits="userSpaceOnUse"><stop offset="0" stop-color="#3d3d3d"/><stop offset="0.5" stop-color="#686868" stop-opacity="0.5"/><stop offset="1" stop-color="#686868" stop-opacity="0"/></radialGradient><radialGradient id="b" cx="-213.7" cy="470.51" r="20" gradientTransform="matrix(0, 12.68, 13.42, 0, -6248.38, 2685.07)" gradientUnits="userSpaceOnUse"><stop offset="0" stop-color="#90dbec"/><stop offset="0.26" stop-color="#42baea"/><stop offset="0.7" stop-color="#3689e6"/><stop offset="1" stop-color="#2b63a0"/></radialGradient><linearGradient id="c" x1="-110.95" y1="366.14" x2="-110.95" y2="341.01" gradientTransform="matrix(4.16, 0, 0, -4.16, 526.46, 1538.51)" gradientUnits="userSpaceOnUse"><stop offset="0" stop-color="#fff"/><stop offset="0.42" stop-color="#fff" stop-opacity="0.23"/><stop offset="0.82" stop-color="#fff" stop-opacity="0.16"/><stop offset="1" stop-color="#fff" stop-opacity="0.39"/></linearGradient></defs><title>clash</title><path class="a" d="M107.21,108.53c.12,7.44-19.1,13.5-42.91,13.53s-43.21-6-43.33-13.4v-.13C20.86,101.09,40.07,95,63.89,95s43.21,6,43.32,13.41Z" transform="translate(-12 -13.5)"/><path class="b" d="M64.5,14a52,52,0,1,0,52,52A52,52,0,0,0,64.5,14Z" transform="translate(-12 -13.5)"/><path class="c" d="M64.5,14a52,52,0,1,0,52,52A52,52,0,0,0,64.5,14Z" transform="translate(-12 -13.5)"/><path class="d" d="M115.5,66a51,51,0,1,1-51-51A51,51,0,0,1,115.5,66Z" transform="translate(-12 -13.5)"/><path class="e" d="M42.47,88.79c.48-4.42.93-8.79,1.45-13.15.61-5.16,1.23-10.32,2-15.46.77-5.43,1.63-10.84,2.54-16.24.39-2.26,1-4.48,1.54-6.7.27-1.07.72-1.23,1.61-.56a8.91,8.91,0,0,1,2.06,2C55.16,41,56.58,43.25,58,45.55a.92.92,0,0,0,1.16.53,36.39,36.39,0,0,1,15.13,0,1.11,1.11,0,0,0,1.45-.72c1.31-2.45,2.7-4.87,4.08-7.28a6.22,6.22,0,0,1,1.05-1.25c.84-.8,1.34-.69,1.6.42.57,2.31,1.17,4.62,1.56,7,1.42,8.46,2.89,16.91,4.11,25.4,1,7.16,1.74,14.36,2.55,21.55.24,2.08.07,2.21-2,2.4a284.92,284.92,0,0,1-28.78.68c-4.76,0-9.53-.31-14.29-.54a30.93,30.93,0,0,1-3.11-.59c-.93-.14-1.89-.13-2.83-.25-3-.36-5.57-1.43-7.36-4-3-4.26-2.09-11.42,4.63-13.48a3.09,3.09,0,0,1,1.68,0c1,.29,1.08,1,.29,1.64s-1.45,1-2.16,1.57a5.6,5.6,0,0,0-2.29,3.24,5.46,5.46,0,0,0,2.79,6A11.07,11.07,0,0,0,42.47,88.79Zm14-32.36a2.61,2.61,0,1,0,2.61,2.62A2.58,2.58,0,0,0,56.5,56.43Zm20,5.27a2.62,2.62,0,1,0-2.64-2.59A2.59,2.59,0,0,0,76.53,61.7Z" transform="translate(-12 -13.5)"/><path class="f" d="M42.47,88.31c.48-4.42.93-8.79,1.45-13.15.61-5.16,1.23-10.32,2-15.46.77-5.43,1.63-10.84,2.54-16.24.39-2.26,1-4.48,1.54-6.7.27-1.06.72-1.23,1.61-.56a8.91,8.91,0,0,1,2.06,2c1.52,2.22,2.94,4.52,4.36,6.82a.92.92,0,0,0,1.16.53,36.39,36.39,0,0,1,15.13,0,1.11,1.11,0,0,0,1.45-.71c1.31-2.46,2.7-4.87,4.08-7.28a6,6,0,0,1,1.05-1.26c.84-.8,1.34-.69,1.6.42.57,2.31,1.17,4.62,1.56,7,1.42,8.46,2.89,16.91,4.11,25.4,1,7.16,1.74,14.36,2.55,21.55.24,2.08.07,2.21-2,2.4a282,282,0,0,1-28.78.68c-4.76,0-9.53-.3-14.29-.54a30.93,30.93,0,0,1-3.11-.59c-.93-.14-1.89-.13-2.83-.25-3-.36-5.57-1.43-7.36-4-3-4.26-2.09-11.42,4.63-13.48a3.09,3.09,0,0,1,1.68,0c1,.29,1.08,1,.29,1.64s-1.45,1-2.16,1.57a5.63,5.63,0,0,0-2.29,3.24,5.46,5.46,0,0,0,2.79,5.95A11,11,0,0,0,42.47,88.31ZM56.5,56a2.62,2.62,0,1,0,2.61,2.62A2.58,2.58,0,0,0,56.5,56Zm20,5.27a2.62,2.62,0,1,0-2.64-2.59A2.59,2.59,0,0,0,76.53,61.22Z" transform="translate(-12 -13.5)"/><path class="g" d="M42.47,87.36c.48-4.42.93-8.79,1.45-13.15.61-5.16,1.23-10.32,2-15.46.77-5.43,1.63-10.84,2.54-16.25.39-2.25,1-4.47,1.54-6.69.27-1.07.72-1.23,1.61-.56a8.72,8.72,0,0,1,2.06,2c1.52,2.22,2.94,4.52,4.36,6.81a.92.92,0,0,0,1.16.54,36.22,36.22,0,0,1,15.13,0,1.11,1.11,0,0,0,1.45-.72c1.31-2.45,2.7-4.87,4.08-7.28a6.22,6.22,0,0,1,1.05-1.25c.84-.8,1.34-.69,1.6.42.57,2.31,1.17,4.61,1.56,7,1.42,8.46,2.89,16.91,4.11,25.4,1,7.16,1.74,14.36,2.55,21.55.24,2.08.07,2.2-2,2.39a282,282,0,0,1-28.78.69c-4.76-.05-9.53-.31-14.29-.54a30.93,30.93,0,0,1-3.11-.59c-.93-.14-1.89-.13-2.83-.25-3-.36-5.57-1.43-7.36-4C29.28,83.2,30.2,76,36.92,74a3.09,3.09,0,0,1,1.68,0c1,.29,1.08,1,.29,1.64s-1.45,1-2.16,1.57a5.6,5.6,0,0,0-2.29,3.24,5.46,5.46,0,0,0,2.79,6A11.07,11.07,0,0,0,42.47,87.36ZM56.5,55a2.61,2.61,0,1,0,2.61,2.62A2.58,2.58,0,0,0,56.5,55Zm20,5.27a2.62,2.62,0,1,0-2.64-2.59A2.59,2.59,0,0,0,76.53,60.27Z" transform="translate(-12 -13.5)"/></svg>