<?xml version="1.0" encoding="utf-8"?>
<!DOCTYPE svg PUBLIC "-//W3C//DTD SVG 1.1//EN" "http://www.w3.org/Graphics/SVG/1.1/DTD/svg11.dtd">
<svg version="1.1" id="clash" xmlns="http://www.w3.org/2000/svg" xmlns:xlink="http://www.w3.org/1999/xlink" x="0px" y="0px"
	 width="24px" height="24px" viewBox="0 0 24 24" enable-background="new 0 0 24 24" xml:space="preserve">
<g>
	<path fill-rule="evenodd" clip-rule="evenodd" fill="#BEBEBE" d="M7.142,18.259c0.129-1.177,0.247-2.34,0.386-3.5
		c0.163-1.375,0.329-2.749,0.523-4.119C8.257,9.195,8.487,7.754,8.73,6.315c0.102-0.601,0.257-1.193,0.408-1.783
		C9.21,4.249,9.331,4.206,9.566,4.383c0.206,0.155,0.408,0.334,0.551,0.545c0.404,0.593,0.782,1.205,1.159,1.816
		c0.082,0.132,0.156,0.178,0.311,0.143c1.342-0.306,2.687-0.265,4.03-0.005c0.203,0.04,0.289-0.009,0.386-0.191
		c0.348-0.653,0.717-1.297,1.087-1.938c0.07-0.124,0.174-0.233,0.277-0.333c0.224-0.214,0.356-0.185,0.427,0.11
		c0.153,0.615,0.311,1.23,0.415,1.854c0.38,2.252,0.771,4.503,1.095,6.764c0.273,1.906,0.465,3.823,0.681,5.738
		c0.062,0.554,0.019,0.587-0.542,0.638c-2.55,0.232-5.107,0.21-7.663,0.183c-1.27-0.014-2.538-0.082-3.807-0.144
		c-0.277-0.014-0.55-0.116-0.827-0.157c-0.249-0.037-0.503-0.036-0.753-0.067c-0.789-0.097-1.485-0.381-1.959-1.052
		c-0.802-1.135-0.558-3.04,1.232-3.59c0.137-0.04,0.309-0.036,0.446,0.006c0.259,0.077,0.288,0.267,0.078,0.436
		c-0.183,0.149-0.385,0.276-0.575,0.419c-0.293,0.224-0.528,0.491-0.61,0.862c-0.139,0.63,0.173,1.287,0.744,1.585
		C6.095,18.186,6.719,18.301,7.142,18.259z M10.878,9.642c-0.39-0.002-0.698,0.304-0.699,0.694c-0.002,0.39,0.304,0.697,0.693,0.698
		c0.39,0.002,0.699-0.303,0.7-0.693C11.574,9.951,11.268,9.643,10.878,9.642z M16.211,11.045c0.389-0.001,0.693-0.31,0.691-0.701
		c-0.002-0.39-0.313-0.693-0.701-0.691c-0.391,0.001-0.694,0.312-0.691,0.703C15.512,10.743,15.82,11.049,16.211,11.045z"/>
</g>
</svg>
